<?xml version="1.0" encoding="UTF-8"?>
<svg width="20px" height="23px" viewBox="0 0 20 23" version="1.1" xmlns="http://www.w3.org/2000/svg" xmlns:xlink="http://www.w3.org/1999/xlink">
    <!-- Generator: Sketch 55.2 (78181) - https://sketchapp.com -->
    <title>icon_delete</title>
    <desc>Created with Sketch.</desc>
    <defs>
        <polygon id="path-1" points="0.00155642023 0.0216482552 19.9839948 0.0216482552 19.9839948 22.2221951 0.00155642023 22.2221951"></polygon>
    </defs>
    <g id="vvv" stroke="none" stroke-width="1" fill="none" fill-rule="evenodd">
        <g id="1_2serch" transform="translate(-340.000000, -87.000000)">
            <g id="icon_delete" transform="translate(340.000000, 87.000000)">
                <g id="Group-3">
                    <mask id="mask-2" fill="white">
                        <use xlink:href="#path-1"></use>
                    </mask>
                    <g id="Clip-2"></g>
                    <path d="M10.152607,0.0216482552 C7.98313878,0.0151219512 6.19841764,1.80512195 6.11634241,4.07 L1.01997406,4.07 C0.456679637,4.07 0,4.54712737 0,5.13569106 C0,5.72417344 0.456679637,6.20130081 1.01997406,6.20130081 L2.15507134,6.20130081 L2.15507134,18.1477507 C2.00075227,20.2121409 3.45836576,22.0247696 5.43136187,22.2221951 L14.6602335,22.2221951 C16.6355642,22.0295393 18.0956161,20.2137127 17.936524,18.1477507 L17.936524,6.21569106 L18.9639948,6.21569106 C19.5272892,6.21569106 19.9839948,5.73856369 19.9839948,5.15 C19.9839948,4.56151762 19.5272892,4.08439024 18.9639948,4.08439024 L14.1789364,4.08439024 C14.1119585,1.81433604 12.3266148,0.012899729 10.152607,0.0216482552 Z M8.04383917,4.07 C8.1201297,2.91495935 9.03929961,2.01864499 10.1476265,2.01864499 C11.2559792,2.01864499 12.1751492,2.91495935 12.2514397,4.07 L8.04383917,4.07 Z M5.43136187,20.2242005 C4.78881971,20.2242005 4.08256809,19.3688347 4.08256809,18.1477507 L4.08256809,6.21569106 L16.0102464,6.21569106 L16.0102464,18.1594851 C16.0102464,19.3805962 15.3039948,20.235935 14.6614527,20.235935 L5.43136187,20.235935 L5.43136187,20.2242005 Z" id="Fill-1" fill="#CCCCCC" mask="url(#mask-2)"></path>
                </g>
                <path d="M6.39369595,16.6666667 C6.89607059,16.6099798 7.26072018,16.1610881 7.21383453,15.6570026 L7.21383453,9.90109119 C7.28410089,9.56659361 7.1449099,9.22298831 6.86190643,9.03207435 C6.57887811,8.8411604 6.20851378,8.8411604 5.92548547,9.03207435 C5.642482,9.22298831 5.503291,9.56659361 5.57355736,9.90109119 L5.57355736,15.6570026 C5.52259686,16.1622577 5.88928388,16.6136875 6.39369595,16.6666667 Z M9.36781643,16.6666667 C9.87019106,16.6099798 10.2348407,16.1610881 10.187955,15.6570026 L10.187955,9.90109119 C10.2582214,9.56659361 10.1190552,9.22298831 9.83602691,9.03207435 C9.55299859,8.8411604 9.18263426,8.8411604 8.89960594,9.03207435 C8.61660248,9.22298831 8.47741148,9.56659361 8.54767784,9.90109119 L8.54767784,15.6570026 C8.50081703,16.1610881 8.86544179,16.6099798 9.36781643,16.6666667 Z M12.4951911,16.6666667 C12.9975657,16.6099798 13.3622153,16.1610881 13.3153297,15.6570026 L13.3153297,9.90109119 C13.3855961,9.56659361 13.2464299,9.22298831 12.9634016,9.03207435 C12.6803981,8.8411604 12.3100089,8.8411604 12.0270055,9.03207435 C11.7439772,9.22298831 11.6047862,9.56659361 11.6750774,9.90109119 L11.6750774,15.6570026 C11.6242163,16.1627554 11.9915741,16.6143594 12.4964583,16.6666667 L12.4951911,16.6666667 Z" id="Fill-4" fill="#CCCCCC"></path>
            </g>
        </g>
    </g>
</svg>