<?xml version="1.0" encoding="UTF-8"?>
<svg width="25px" height="25px" viewBox="0 0 25 25" version="1.1" xmlns="http://www.w3.org/2000/svg" xmlns:xlink="http://www.w3.org/1999/xlink">
    <!-- Generator: Sketch 55.2 (78181) - https://sketchapp.com -->
    <title>icon/qtts/蓝备份</title>
    <desc>Created with Sketch.</desc>
    <g id="icon/qtts/蓝备份" stroke="none" stroke-width="1" fill="none" fill-rule="evenodd">
        <path d="M6.02474445,8.29454444 C6.11833814,8.65334968 6.22363334,9.04334441 6.34062956,9.46452373 C6.45762578,9.88570306 6.59023118,10.3147012 6.73844798,10.7515157 C6.88666404,11.1883301 7.05435757,11.6212205 7.2415288,12.0501843 C7.42870003,12.4791482 7.6314966,12.8808442 7.84992097,13.2552674 L7.84992097,22.4747356 L2,23.9255207 L2,9.30073055 L6.02474445,8.29454444 Z M7.77973788,7.49895656 C7.77973788,7.42094806 7.77583747,7.34684823 7.76803662,7.27665706 C7.76023577,7.20646589 7.75633536,7.13236606 7.75633536,7.05435757 C7.75633536,6.35236265 7.89283376,5.69717522 8.16583056,5.08879039 C8.43882736,4.48040556 8.80931917,3.94611322 9.27730355,3.48591337 C9.74528792,3.02571351 10.2912815,2.66301356 10.9152844,2.39781842 C11.5392872,2.13262328 12.2100779,2 12.9276566,2 C13.6452352,2 14.316026,2.13258974 14.9400288,2.39781842 C15.5640316,2.66304784 16.1100252,3.02574534 16.5780096,3.48591337 C17.045994,3.9460814 17.4164858,4.48037374 17.6894826,5.08879039 C17.9624794,5.69720704 18.0989778,6.35239692 18.0989778,7.05435757 L18.0989778,7.33516337 C18.0989778,7.42875706 18.091177,7.52235908 18.0755753,7.61596917 C17.9819816,8.44276124 17.7986862,9.23444706 17.5256894,9.99103155 C17.2526926,10.747616 16.905596,11.4769033 16.4843995,12.1788982 C16.0632031,12.8808932 15.579608,13.5555835 15.0336144,14.2029717 C14.4876208,14.8503599 13.9026238,15.470446 13.278621,16.0632275 C13.1694093,16.1724392 13.0524048,16.2270452 12.9276076,16.2270452 C12.8028105,16.2270452 12.6858059,16.1724392 12.5765942,16.0632275 C11.9369906,15.4704289 11.3441992,14.8464358 10.7982228,14.191246 C10.2522463,13.5360561 9.76865128,12.8496645 9.34743768,12.1320687 C8.92622408,11.4144729 8.57912745,10.6695823 8.30614778,9.89739698 C8.03316811,9.12521162 7.85766388,8.32572414 7.77963996,7.49893208 L7.77973788,7.49895656 Z M12.9276566,4.90159468 C12.6156564,4.90159468 12.3270563,4.95620065 12.0618611,5.06541235 C11.796666,5.17462404 11.5665722,5.32671523 11.3715846,5.52168812 C11.1765963,5.71666027 11.0205957,5.94675236 10.9035831,6.21196464 C10.7865705,6.47717692 10.7280886,6.75797538 10.7280886,7.05435757 C10.7280886,7.35073976 10.786603,7.63153822 10.9035831,7.8967505 C11.0205632,8.16196278 11.1765628,8.39205414 11.3715846,8.58702702 C11.5666057,8.78199917 11.7966978,8.93409183 12.0618611,9.04330279 C12.3270245,9.15251449 12.6156221,9.20712046 12.9276566,9.20712046 C13.239691,9.20712046 13.532181,9.15251449 13.8051288,9.04330279 C14.0780767,8.9340911 14.3120701,8.78199991 14.5071066,8.58702702 C14.7021439,8.39205487 14.8581445,8.16196278 14.9751081,7.8967505 C15.0920718,7.63153822 15.1506026,7.35073976 15.1506026,7.05435757 C15.1506026,6.75797538 15.0921371,6.47717692 14.9751081,6.21196464 C14.8580791,5.94675236 14.7020795,5.716661 14.5071066,5.52168812 C14.3121345,5.32671596 14.0781428,5.17462331 13.8051288,5.06541235 C13.5321149,4.95620065 13.2396249,4.90159468 12.9276566,4.90159468 Z M9.30070607,15.1506515 C9.75310672,15.6498646 10.1938037,16.1022554 10.6228018,16.507851 C11.0517999,16.9134466 11.4378926,17.2722445 11.7810798,17.5842447 C12.1866754,17.9430499 12.5688758,18.2628518 12.9276811,18.5436502 C13.1148848,18.3876496 13.3254823,18.2082475 13.5594758,18.0054412 C13.7622814,17.833839 13.9962731,17.6154391 14.2614535,17.3502439 C14.526634,17.0850488 14.8308325,16.7886495 15.174054,16.461046 L15.174054,23.9255452 L9.30070607,22.4747601 L9.30070607,15.1506515 L9.30070607,15.1506515 Z M22.4747112,7.82656741 L22.4747112,22.4747356 L16.6247902,23.9255207 L16.6247902,14.9634558 C16.7183839,14.8698621 16.8080772,14.7723598 16.8938702,14.6709487 C16.9796633,14.5695377 17.0693566,14.4720354 17.1629503,14.3784417 C17.4749505,14.0352544 17.7635506,13.6257592 18.0287458,13.1499561 C18.2939409,12.6741529 18.5318437,12.1671554 18.7424493,11.6289634 C18.9530556,11.0907715 19.1402506,10.5525771 19.3040364,10.0143851 C19.4678215,9.47619317 19.6121199,8.97309522 19.7369341,8.50509371 L22.4747112,7.82656741 Z" id="形状备份-2" fill="#5584FF" fill-rule="nonzero"></path>
    </g>
</svg>