<?xml version="1.0" encoding="UTF-8"?>
<svg width="25px" height="25px" viewBox="0 0 25 25" version="1.1" xmlns="http://www.w3.org/2000/svg" xmlns:xlink="http://www.w3.org/1999/xlink">
    <!-- Generator: Sketch 55.2 (78181) - https://sketchapp.com -->
    <title>icon/case/lblue</title>
    <desc>Created with Sketch.</desc>
    <g id="icon/case/lblue" stroke="none" stroke-width="1" fill="none" fill-rule="evenodd">
        <path d="M5.1364895,4.04004891 L5.13648953,4.04004891 C4.67626364,4.03177746 4.30990868,3.65345708 4.3182125,3.19504558 C4.31822263,3.19448593 4.31823334,3.19392629 4.31824461,3.19336665 C4.31824461,2.72665827 4.68590184,2.34806002 5.13648926,2.34806002 L21.2719419,2.34806002 L21.2719419,2.34806008 C20.9930244,1.83119388 20.4539824,1.50630065 19.8648929,1.5 L5.13648929,1.5 C4.2325501,1.5 3.5,2.25581977 3.5,3.19198999 L3.5,5.72928661 L3.90912232,5.72928661 C4.58638563,5.72928661 5.13648929,6.29649562 5.13648929,7 C5.13648929,7.69937422 4.58638563,8.26933667 3.90912232,8.26933667 L3.5,8.26933667 L3.5,9.11326658 L3.90912232,9.11326658 C4.58638563,9.11326658 5.13648929,9.68047559 5.13648929,10.3826033 C5.13648929,11.0861076 4.58638563,11.6533166 3.90912232,11.6533166 L3.5,11.6533166 L3.5,12.5 L3.90912232,12.5 C4.58638563,12.5 5.13648929,13.067209 5.13648929,13.7707134 C5.13648929,14.4700876 4.58638563,15.0386733 3.90912232,15.0386733 L3.5,15.0386733 L3.5,15.8853567 L3.90912232,15.8853567 C4.58638563,15.8853567 5.13648929,16.4553191 5.13648929,17.1546934 C5.13648929,17.856821 4.58638563,18.4254068 3.90912232,18.4254068 L3.5,18.4254068 L3.5,19.2679599 L3.90912232,19.2679599 C4.58638563,19.2679599 5.13648929,19.8365457 5.13648929,20.5400501 C5.13648929,21.2421777 4.58638563,21.80801 3.90912232,21.80801 L3.5,21.80801 C3.5,22.7441802 4.2325501,23.5 5.13648929,23.5 L19.8607464,23.5 C20.7660677,23.5 21.5,22.7428035 21.5,21.80801 L21.5,4.04005006 L5.13648929,4.04005006 L5.1364895,4.04004891 Z M11.685211,8.0311628 L11.685211,8.0311628 C11.8247825,7.79161337 12.1326389,7.70971783 12.3735317,7.84805892 L15.4225987,9.60337807 C15.6630963,9.74105016 15.7460265,10.0480589 15.6091916,10.2889851 L15.6091916,10.2889851 C15.4685865,10.5280634 15.1609042,10.6097481 14.9194888,10.472089 L11.8676574,8.71676981 L11.8676575,8.71676982 C11.6276609,8.57727896 11.5460891,8.27074667 11.685211,8.03116281 L11.685211,8.0311628 Z M8.91672447,12.8083843 L8.91672443,12.8083844 C9.05320162,12.5690522 9.35862362,12.4852357 9.59890091,12.6211757 C9.60049288,12.6220764 9.60207988,12.6229858 9.60366182,12.6239038 L12.6554932,14.3805996 L12.6554932,14.3805996 C12.8907493,14.529295 12.9604431,14.8397963 12.8111592,15.0741249 C12.6708534,15.2943616 12.3846993,15.3710535 12.1523824,15.250687 L9.10193323,13.4926144 L9.10193324,13.4926144 C8.86193669,13.3577208 8.77716864,13.0545784 8.9125956,12.8155302 C8.91395137,12.8131371 8.91532705,12.8107552 8.91672248,12.8083848 L8.91672447,12.8083843 Z M14.6029719,18.4419263 L8.03075349,18.4419263 L8.03075349,17.9435533 L8.55044942,17.9435533 L8.55044942,17.4410502 C8.55044942,17.1643293 8.77436096,16.9399238 9.0535593,16.9399238 L13.5843126,16.9399238 C13.8635109,16.9399238 14.0874225,17.1643293 14.0874225,17.4410502 L14.0874225,17.9435533 L14.6029719,17.9435533 L14.6029719,18.4419263 Z M19.8897722,15.9321641 L19.8897722,15.932164 C19.6864148,16.2901803 19.2301834,16.4162062 18.8707479,16.2136518 C18.8671666,16.2116336 18.863602,16.209586 18.8600546,16.2075091 L13.5359358,12.8593239 L12.9056662,13.94418 L9.85245269,12.1888608 L11.6161016,9.14906108 L14.667933,10.9043802 L14.0390456,11.9892363 L19.6133373,14.9065079 L19.6133373,14.9065079 C19.9736151,15.1121963 20.0982738,15.5698508 19.8917733,15.9287081 C19.8911094,15.9298619 19.8904423,15.931014 19.8897722,15.9321643 L19.8897722,15.9321641 Z" id="anj_selent" fill="#5584FF" fill-rule="nonzero"></path>
    </g>
</svg>