<?xml version="1.0" encoding="UTF-8"?>
<svg width="25px" height="25px" viewBox="0 0 25 25" version="1.1" xmlns="http://www.w3.org/2000/svg" xmlns:xlink="http://www.w3.org/1999/xlink">
    <!-- Generator: Sketch 55.2 (78181) - https://sketchapp.com -->
    <title>icon/home/bule</title>
    <desc>Created with Sketch.</desc>
    <g id="icon/home/bule" stroke="none" stroke-width="1" fill="none" fill-rule="evenodd">
        <path d="M13.7453912,1.95751738 L13.7453912,1.95751735 C13.0727548,1.34749421 12.0468573,1.34749421 11.3742209,1.95751741 L1.7860626,11.0599765 L1.78606258,11.0599765 C1.42635069,11.390424 1.40268302,11.9498492 1.73319769,12.3094869 C2.05930515,12.6643286 2.60953505,12.6928071 2.97054836,12.3735337 L3.12301218,12.2288055 L3.12301218,21.7291419 L3.12301218,21.7291412 C3.12179588,22.7059413 3.9128274,23.4987831 4.88982881,23.5 C4.89056315,23.5 4.89129748,23.5 4.89203182,23.5 L10.040013,23.5 L10.040013,18.1753212 L10.0400129,18.175279 C10.0391242,17.4875074 10.5960674,16.9292367 11.2839832,16.9283489 C11.2847175,16.9283479 11.2854518,16.9283476 11.2861861,16.928348 L13.7085446,16.928348 L13.7085445,16.928348 C14.3964603,16.9280434 14.9543715,17.4853469 14.9546749,18.1731185 C14.9546752,18.1738526 14.9546749,18.1745868 14.9546739,18.1753209 L14.9546739,23.5 L20.2248707,23.5 L20.2248708,23.5 C21.2018746,23.5003044 21.9941386,22.7086963 21.9944444,21.7318962 C21.9944446,21.7309786 21.9944442,21.7300609 21.9944431,21.7291433 L21.9944431,12.3449319 C22.3874365,12.7004241 22.9450027,12.6734595 23.2719468,12.3091626 L23.2719468,12.3091626 C23.599341,11.9466828 23.5708395,11.3874827 23.2082846,11.0601535 C23.2082228,11.0600977 23.208161,11.060042 23.2080992,11.0599862 L13.7453857,1.95806523 L13.7453912,1.95751738 Z" id="路径" fill="#5584FF"></path>
    </g>
</svg>