<?xml version="1.0" encoding="UTF-8"?>
<svg width="240px" height="111px" viewBox="0 0 240 111" version="1.1" xmlns="http://www.w3.org/2000/svg" xmlns:xlink="http://www.w3.org/1999/xlink">
    <title>编组 14</title>
    <defs>
        <linearGradient x1="50%" y1="0%" x2="50%" y2="100%" id="linearGradient-1">
            <stop stop-color="#62ABFE" offset="0%"></stop>
            <stop stop-color="#3373FC" offset="100%"></stop>
        </linearGradient>
        <linearGradient x1="50%" y1="0%" x2="50%" y2="100%" id="linearGradient-2">
            <stop stop-color="#FFFFFF" stop-opacity="0.69798951" offset="0%"></stop>
            <stop stop-color="#FFFFFF" offset="100%"></stop>
        </linearGradient>
    </defs>
    <g id="页面-1" stroke="none" stroke-width="1" fill="none" fill-rule="evenodd">
        <g id="编组-14">
            <text id="睿企企业开源情报管家备份" font-family="PingFangSC-Medium, PingFang SC" font-size="24" font-weight="400" fill="#307AFF">
                <tspan x="0" y="103">睿企企业开源情报管家</tspan>
            </text>
            <g id="编组-13备份" transform="translate(86.000000, 0.000000)">
                <g id="管家" fill="url(#linearGradient-1)">
                    <rect id="矩形" x="0" y="0" width="66" height="66" rx="8"></rect>
                </g>
                <path d="M40.9647682,18.3546334 L40.966831,18.3566403 L55.1334227,32.1392122 C55.6213853,32.61284 55.6223097,33.3816429 55.1354853,33.8563781 L55.1334226,33.8583849 L40.966831,47.6409567 C40.7325068,47.8689445 40.4146894,47.9970359 40.0832943,47.9970506 L40.0832974,48 C39.7517035,48.0009438 39.4335187,47.8727051 39.1997607,47.6438953 L32.999,41.612 L26.8002412,47.6439009 C26.5993919,47.839319 26.3372007,47.9613546 26.0576959,47.9922338 L25.9167057,47.9999948 C25.5851118,48.0009438 25.2669271,47.8727051 25.033169,47.6438953 L10.8665773,33.8613234 C10.3786147,33.3876956 10.3776903,32.6188928 10.8645145,32.1441576 L10.8665773,32.1421507 L25.0331689,18.3595789 C25.5199933,17.8848437 26.3102171,17.8839443 26.7981796,18.357572 L26.8002424,18.3595788 L32.998,24.389 L39.1997575,18.3566404 C39.6865818,17.8819052 40.4768056,17.8810058 40.9647682,18.3546334 Z M40.0832973,20.9353963 L34.765,26.109 L37.4357723,28.7072838 C38.1641286,28.2620349 39.0160681,27.9905523 39.9301654,27.9525964 L40.1519266,27.9480012 C42.9753743,27.9480012 45.2642309,30.1748128 45.2642309,32.9217241 C45.2642309,35.6686354 42.9753743,37.8954469 40.1519266,37.8954469 C37.3284789,37.8954469 35.0396223,35.6686354 35.0396223,32.9217241 C35.0396223,32.0278419 35.2819984,31.1890353 35.7062998,30.4641161 L32.2186669,27.0690558 C32.1833887,27.0419073 32.1492604,27.0126395 32.1164617,26.981251 C32.0799147,26.9462753 32.0460466,26.9096503 32.0148596,26.8716178 L25.9151957,20.93687 L13.5141657,33.00174 L25.9151957,45.0666099 L31.233,39.893 L28.4574993,37.1935006 C27.7507413,37.6046805 26.9334121,37.8545535 26.0592357,37.8908517 L25.8374746,37.8954469 C23.0140269,37.8954469 20.7251703,35.6686354 20.7251703,32.9217241 C20.7251703,30.1748128 23.0140269,27.9480012 25.8374746,27.9480012 C28.6609223,27.9480012 30.9497789,30.1748128 30.9497789,32.9217241 C30.9497789,33.8552608 30.685421,34.7287273 30.2255636,35.4751317 L33.7715931,38.9240669 C33.8103366,38.9532816 33.847729,38.9850221 33.8835367,39.0192903 C33.9228951,39.0569565 33.9591465,39.0965354 33.9922883,39.1377251 L40.0832973,45.0651362 L52.4843272,33.0002662 L40.0832973,20.9353963 Z" id="形状" fill="url(#linearGradient-2)" fill-rule="nonzero"></path>
            </g>
        </g>
    </g>
</svg>