<?xml version="1.0" encoding="UTF-8"?>
<svg width="74px" height="88px" viewBox="0 0 74 88" version="1.1" xmlns="http://www.w3.org/2000/svg" xmlns:xlink="http://www.w3.org/1999/xlink">
    <!-- Generator: Sketch 55.2 (78181) - https://sketchapp.com -->
    <title>编组 3</title>
    <desc>Created with Sketch.</desc>
    <defs>
        <linearGradient x1="0%" y1="59.7655988%" x2="100%" y2="59.7655988%" id="linearGradient-1">
            <stop stop-color="#001A29" offset="0%"></stop>
            <stop stop-color="#76B7CE" offset="100%"></stop>
        </linearGradient>
    </defs>
    <g id="vvv" stroke="none" stroke-width="1" fill="none" fill-rule="evenodd">
        <g id="0qidongye" transform="translate(-150.000000, -175.000000)">
            <g id="编组-3" transform="translate(149.500000, 175.000000)">
                <g id="编组-4" transform="translate(12.500000, 0.000000)" fill="url(#linearGradient-1)">
                    <path d="M33.653053,1.3915408 C15.5533516,7.71207284 6.8672006,17.586917 7.59460002,31.0160733 C8.32199944,44.4452296 17.0081504,52.5705807 33.653053,55.3921264 C27.6476991,58.4089737 21.0847137,58.4089737 13.9640969,55.3921264 C3.28317171,50.8668553 -2.93208074,36.4444961 2.44585213,20.2292523 C7.823785,4.01400859 26.9308302,0.345238095 30.8564833,0.345238095 C33.4735854,0.345238095 34.4057753,0.694005664 33.653053,1.3915408 Z M28.1453102,22.245682 C21.9246404,25.0646829 18.9594768,29.1105981 19.2498195,34.3834274 C19.5401622,39.6562567 22.6767189,42.441674 28.6594897,42.7396792 C28.9272187,42.9822448 28.9624104,43.183234 28.7650648,43.3426466 C26.9622525,44.7989299 23.5810341,44.9288203 20.9027664,43.8126081 C16.6394575,42.0358038 14.1586293,36.3730029 16.3052401,30.0062431 C18.4518508,23.6394833 25.7983359,21.6316327 27.3652668,21.6316327 C28.4098874,21.6316327 28.6699018,21.8363158 28.1453102,22.245682 Z M32.5675312,21.727414 C33.0019431,21.3613136 38.5499027,22.0935143 40.3998227,23.0945633 C49.0639552,27.7953873 50.6205357,36.9840087 50.6205357,41.6270765 C50.6205357,46.2701442 48.6383234,54.379932 46.8267522,54.379932 C45.015181,54.379932 39.080475,50.9881608 39.9042696,50.1382032 C44.2873895,44.8154918 43.9377831,38.0413516 43.9355634,38.0357103 C45.191094,26.2432209 33.0231293,22.8839544 32.5675312,22.5341931 C32.1119331,22.1844318 32.1331192,22.0935143 32.5675312,21.727414 Z M29.0950422,44.2978342 C31.9082913,43.3901114 33.987005,40.1886519 33.987005,36.3785469 C33.987005,32.4767484 31.8070352,29.213243 28.8906746,28.3977329 C29.4698339,28.2143458 30.0850139,28.1422628 30.7256964,28.2016516 C34.4082876,28.543014 37.2483135,31.8625723 37.2483135,36.3785469 C37.2483135,40.8945215 34.3280384,44.5554422 30.7256964,44.5554422 C30.1626322,44.5554422 29.6162318,44.4660012 29.0950422,44.2978342 Z M26.4389943,30.1753815 C25.5226582,30.9423359 25.1198361,31.618337 25.2305278,32.2033849 C25.3965653,33.0809568 25.6574274,33.1983123 26.8826968,32.9240083 C28.1079661,32.6497044 30.0284817,32.530005 30.5137286,35.2161249 C30.9989755,37.9022447 27.7406323,40.3734316 25.2305278,39.4434363 C22.7204232,38.513441 22.06989,36.7317085 22.2264652,34.4034311 C22.3830405,32.0751536 25.2744185,30.0368478 25.8567064,29.8641335 C26.2448983,29.7489907 26.4389943,29.85274 26.4389943,30.1753815 Z" id="形状结合"></path>
                </g>
                <text id="OceanEye" font-family="BanglaMN-Bold, Bangla MN" font-size="13.2" font-weight="bold" line-spacing="12" fill="#001A27">
                    <tspan x="0.5" y="83.5">OceanEye</tspan>
                </text>
                <text id="专注用户体验平台" font-family="PingFangSC-Regular, PingFang SC" font-size="5.4" font-weight="normal" line-spacing="12" letter-spacing="4.25999994" fill="#6D7278">
                    <tspan x="0.860000229" y="85">专注用户体验平台</tspan>
                </text>
            </g>
        </g>
    </g>
</svg>