<?xml version="1.0" encoding="UTF-8"?>
<svg width="119px" height="102px" viewBox="0 0 119 102" version="1.1" xmlns="http://www.w3.org/2000/svg" xmlns:xlink="http://www.w3.org/1999/xlink">
    <!-- Generator: Sketch 55.2 (78181) - https://sketchapp.com -->
    <title>编组</title>
    <desc>Created with Sketch.</desc>
    <defs>
        <linearGradient x1="0%" y1="59.7655988%" x2="100%" y2="59.7655988%" id="linearGradient-1">
            <stop stop-color="#001A29" offset="0%"></stop>
            <stop stop-color="#76B7CE" offset="100%"></stop>
        </linearGradient>
    </defs>
    <g id="vvv" stroke="none" stroke-width="1" fill="none" fill-rule="evenodd">
        <g id="0-1zhuc" transform="translate(-134.000000, -127.000000)">
            <g id="编组" transform="translate(134.000000, 127.000000)">
                <text id="text3" font-family="FZZCHJW--GB1-0, FZZhengHeiS-B-GB" font-size="20" font-weight="normal" fill="#161619">
                    <tspan x="0" y="99.9137931">湖南省公安厅</tspan>
                </text>
                <g id="编组-3备份" transform="translate(22.500000, 0.000000)" fill="url(#linearGradient-1)">
                    <g id="编组-4" transform="translate(0.551724, 0.000000)">
                        <path d="M40.0733122,1.24903388 C18.4666202,8.79422956 8.09744425,20.5824194 8.96578428,36.6136034 C9.83412431,52.6447874 20.2033003,62.344503 40.0733122,65.7127503 C32.9043634,69.3141407 25.0697367,69.3141407 16.5694322,65.7127503 C3.81897542,60.3106646 -3.60054173,43.0938351 2.81941716,23.7367325 C9.23937605,4.37962993 32.0485943,0 36.7348804,0 C39.859071,0 40.9718817,0.416344627 40.0733122,1.24903388 Z M33.4983914,26.1438647 C26.0724072,29.5090741 22.5327149,34.3389241 22.8793142,40.6334146 C23.2259136,46.9279051 26.9702082,50.2530236 34.1121982,50.6087703 C34.4318022,50.8983353 34.4738126,51.138268 34.2382294,51.3285684 C32.0861049,53.0670205 28.0497432,53.2220784 24.8525354,51.8895893 C19.7631696,49.7685123 16.8016571,43.0084894 19.3641943,35.4081089 C21.9267314,27.8077284 30.6966683,25.4108374 32.5672071,25.4108374 C33.814233,25.4108374 34.1246277,25.6551799 33.4983914,26.1438647 Z M38.7774601,25.5251773 C39.2960435,25.0881415 45.9189734,25.9622131 48.1273331,27.1572249 C58.4702243,32.7688786 60.3284072,43.7378834 60.3284072,49.28059 C60.3284072,54.8232966 57.9621222,64.5044335 55.7995418,64.5044335 C53.6369614,64.5044335 46.5523492,60.4554741 47.5357618,59.4408292 C52.7681532,53.0867914 52.3508073,45.0000967 52.3481575,44.9933623 C53.8469592,30.915965 39.3213347,26.9058085 38.7774601,26.4882776 C38.2335855,26.0707467 38.2588767,25.9622131 38.7774601,25.5251773 Z M34.6321431,52.4688327 C37.9904862,51.3852299 40.4719705,47.5634569 40.4719705,43.0151076 C40.4719705,38.3572982 37.8696107,34.4614574 34.3881773,33.4879345 C35.0795543,33.2690144 35.8139313,33.1829645 36.5787522,33.2538605 C40.9748807,33.6613652 44.3651888,37.6241197 44.3651888,43.0151076 C44.3651888,48.4060955 40.8790824,52.7763547 36.5787522,52.7763547 C35.9065889,52.7763547 35.2543182,52.6695837 34.6321431,52.4688327 Z M31.4614604,35.6100195 C30.3675755,36.5255786 29.8867027,37.3325615 30.018842,38.030968 C30.2170509,39.0785778 30.5284576,39.2186721 31.9911346,38.8912191 C33.4538116,38.5637661 35.7464455,38.4208739 36.3257136,41.6274552 C36.9049817,44.8340364 33.0153034,47.7840395 30.018842,46.6738487 C27.0223806,45.5636578 26.2458003,43.4366977 26.4327135,40.6572942 C26.6196267,37.8778907 30.071237,35.4446435 30.7663487,35.2384642 C31.2297565,35.1010114 31.4614604,35.2248631 31.4614604,35.6100195 Z" id="形状结合"></path>
                    </g>
                </g>
            </g>
        </g>
    </g>
</svg>