<?xml version="1.0" encoding="UTF-8"?>
<svg width="15px" height="15px" viewBox="0 0 15 15" version="1.1" xmlns="http://www.w3.org/2000/svg" xmlns:xlink="http://www.w3.org/1999/xlink">
    <!-- Generator: Sketch 55.2 (78181) - https://sketchapp.com -->
    <title>search</title>
    <desc>Created with Sketch.</desc>
    <g id="vvv" stroke="none" stroke-width="1" fill="none" fill-rule="evenodd">
        <g id="1_1home备份" transform="translate(-125.000000, -35.000000)" fill="#999999">
            <g id="icon_search" transform="translate(125.000000, 35.000000)">
                <path d="M14.2568545,13.5586115 L11.5426586,10.8247216 C12.5774905,9.60548187 13.0966969,8.05502433 13.0071785,6.4562269 C12.9176602,4.84131617 12.2140461,3.34456963 11.0288234,2.2452845 C9.87403687,1.17464523 8.37191923,0.583824233 6.79818693,0.583824233 C5.9889412,0.583824233 5.20117987,0.737795767 4.45638733,1.04036773 C3.6847393,1.3536819 2.99365777,1.81201577 2.4010464,2.4064175 C1.2570021,3.5504618 0.610679733,5.0704831 0.5802435,6.68897457 C0.549807267,8.30746603 1.14062827,9.8507621 2.2399134,11.0359848 C2.83789587,11.6805168 3.54867143,12.1818195 4.3507557,12.5237795 C5.12777483,12.8549974 5.9513435,13.0232918 6.7999773,13.0232918 C8.2716587,13.0232918 9.69679057,12.5005048 10.8193505,11.5480297 L13.497739,14.2801292 C13.5979995,14.3857609 13.7340674,14.444843 13.8790871,14.444843 C14.0133646,14.444843 14.142271,14.3947127 14.2389508,14.3016136 C14.4484237,14.1028829 14.4573755,13.7698747 14.2568545,13.5586115 L14.2568545,13.5586115 Z M6.81967133,11.9956214 C3.96761723,11.993831 1.64551167,9.66993507 1.64193093,6.81967133 C1.64193093,3.9640365 3.9640365,1.64193093 6.81967133,1.64193093 C9.67530617,1.64193093 11.9974117,3.9640365 11.9974117,6.81967133 C11.9956214,9.6735158 9.6735158,11.9956214 6.81967133,11.9956214 Z" id="search"></path>
            </g>
        </g>
    </g>
</svg>