<?xml version="1.0" encoding="UTF-8"?>
<svg width="22px" height="22px" viewBox="0 0 22 22" version="1.1" xmlns="http://www.w3.org/2000/svg" xmlns:xlink="http://www.w3.org/1999/xlink">
    <!-- Generator: Sketch 55.2 (78181) - https://sketchapp.com -->
    <title>形状</title>
    <desc>Created with Sketch.</desc>
    <g id="vvv" stroke="none" stroke-width="1" fill="none" fill-rule="evenodd">
        <g id="1_7gerenxiangq" transform="translate(-179.000000, -87.000000)" fill="#4A67F5" fill-rule="nonzero">
            <g id="分组-9" transform="translate(80.000000, 78.000000)">
                <g id="分组-5">
                    <g id="男">
                        <g id="分组-2">
                            <path d="M117.969241,16.6129597 L117.969241,12.8629501 L113.822202,16.8947227 C115.003045,18.3265912 115.648538,20.1247515 115.648538,21.9818259 C115.717698,26.5387024 112.082955,30.288712 107.526079,30.3604335 C102.969203,30.4295935 99.219193,26.7922891 99.1474715,22.2354127 C99.0783115,17.6785362 102.713054,13.9285266 107.269931,13.8568051 L107.395443,13.8568051 C109.103952,13.8568051 110.774038,14.3844704 112.170046,15.3680795 L116.409298,11.3414298 L112.285313,11.3414298 L112.285313,9.09757163 L120.146501,9.09757163 L120.146501,16.6155212 L117.969241,16.6129597 L117.969241,16.6129597 Z M101.422067,21.9741415 C101.370838,25.2733303 104.004041,27.9910626 107.30323,28.0422923 C110.602419,28.0935219 113.320151,25.4603185 113.371381,22.1611297 C113.422611,18.8619409 110.789407,16.1442085 107.490218,16.09286 L107.395443,16.09286 C104.124431,16.072487 101.450244,18.703129 101.422067,21.9741415 Z" id="形状"></path>
                        </g>
                    </g>
                </g>
            </g>
        </g>
    </g>
</svg>