<?xml version="1.0" encoding="UTF-8"?>
<svg width="35px" height="16px" viewBox="0 0 35 16" version="1.1" xmlns="http://www.w3.org/2000/svg" xmlns:xlink="http://www.w3.org/1999/xlink">
    <!-- Generator: Sketch 55.2 (78181) - https://sketchapp.com -->
    <title>x</title>
    <desc>Created with Sketch.</desc>
    <g id="yem" stroke="none" stroke-width="1" fill="none" fill-rule="evenodd">
        <g id="my" transform="translate(-133.000000, -79.000000)" fill="#5584FF" fill-rule="nonzero">
            <g id="head" transform="translate(0.000000, 56.000000)">
                <g id="biaoq" transform="translate(133.000000, 23.000000)">
                    <path d="M27.4690536,0 L27.4690536,0.0174267964 L27.4484327,0.0174267964 L27.4484327,0.00179117183 L14.77196,0.00179117183 L14.77196,0 L7.2399829,0 L7.2399829,0.00179117183 L6.72611032,0.00179117183 L6.72611032,0.02703164 C2.99125758,0.227169135 0,3.58079718 0,7.67467208 L0,16 L7.53217901,16 L7.53217901,15.9982131 L20.2290628,15.9982131 L20.2290628,16 L27.7610398,16 L27.7610398,15.9863746 L27.9163149,15.9863746 C31.8136623,15.9863746 35,12.5512184 35,8.3291248 L35,0 L27.4690536,0 Z" id="x"></path>
                </g>
            </g>
        </g>
    </g>
</svg>